<svg xmlns="http://www.w3.org/2000/svg" width="250" height="145.173"><g data-name="Group 1" fill="#fff"><path data-name="Path 1" d="M93.751 90.033l-48.944-16.5s-8.938 13.8-11.046 17.035-.025 4.619 1.922 4.652c.985.015 20.262.2 39.1.39a46.675 46.675 0 0018.965-5.577"/><path data-name="Path 2" d="M98.952 86.631l-49.739-30.13s-5.142 6.23-6.905 8.427-.746 4.321.968 4.947c1.17.422 32.671 11.777 52.537 18.941a42.783 42.783 0 003.14-2.184"/><path data-name="Path 3" d="M102.763 83.323L58.229 41.776s-6.2 4.761-8.89 6.814-1.374 3.967.382 5.107c1.267.817 32.988 20.6 50.78 31.687q1.155-.978 2.263-2.06"/><path data-name="Path 4" d="M106.438 79.244C95.592 63.228 75.696 33.831 73.985 31.217a24.675 24.675 0 01-3.1-6.321s-7.881 6.727-10.325 8.818-1.179 5.131-.16 6.139c.748.744 28.955 27.8 43.777 42.021q1.166-1.251 2.259-2.63"/><path data-name="Path 5" d="M107.981 77.174q.882-1.256 1.705-2.6c-7.673-17.039-21.724-48.252-23.469-52.2a17.636 17.636 0 01-1.552-9.77s-2.341 1.9-7.582 5.653c-5.076 3.626-.932 9.162-.932 9.162z"/><path data-name="Path 6" d="M111.072 72.136q1.193-2.244 2.226-4.741c-4.412-17.308-11.928-46.834-12.724-50.014-1.827-7.306 3.192-13.111 3.192-13.111s-8.752 4.8-12.986 7.53c-4.115 2.657-2.816 7.287-1.742 9.777.786 1.822 14.644 33.623 22.033 50.56"/><path data-name="Path 7" d="M114.752 63.467a70.933 70.933 0 002.775-11.87 20455.237 20455.237 0 01-3.953-38.084c-.932-9.244 2.712-12.405 2.712-12.405a102.217 102.217 0 00-9.087 5.851c-3.98 2.937-4.441 7.753-3.374 12.181.732 3.041 7.044 28.6 10.928 44.326"/><path data-name="Path 8" d="M119.255 44.576l3.6-.013L122.043 0s-.526.672-3.2 4.2-2.759 6.157-2.461 9.874c.166 2.037 1.605 17.216 2.874 30.5"/><path data-name="Path 9" d="M129.591 44.587c1.269-13.29 2.71-28.474 2.874-30.511.3-3.716.22-6.343-2.461-9.874s-3.2-4.2-3.2-4.2l-.815 44.607z"/><path data-name="Path 10" d="M135.271 13.513c-.542 5.344-2.437 23.567-3.94 37.984a71.874 71.874 0 002.776 11.927c3.887-15.736 10.187-41.243 10.918-44.283 1.067-4.428.608-9.246-3.374-12.179a101.869 101.869 0 00-9.089-5.853s3.646 3.161 2.71 12.405"/><path data-name="Path 11" d="M148.275 17.382c-.8 3.178-8.307 32.658-12.713 49.972q1.027 2.5 2.228 4.754a80977.933 80977.933 0 0022.021-50.531c1.072-2.491 2.373-7.124-1.742-9.777-4.233-2.728-12.988-7.531-12.988-7.531s5.022 5.8 3.194 13.113"/><path data-name="Path 12" d="M139.172 74.543c.551.9 1.119 1.771 1.709 2.61l31.816-49.741s4.144-5.535-.93-9.164c-5.242-3.745-7.582-5.651-7.582-5.651a17.676 17.676 0 01-1.554 9.772c-1.744 3.946-15.783 35.13-23.458 52.174"/><path data-name="Path 13" d="M188.285 33.714c-2.444-2.091-10.323-8.818-10.323-8.818a24.7 24.7 0 01-3.1 6.319c-1.709 2.615-21.593 31.992-32.442 48.009q1.094 1.384 2.262 2.637c14.828-14.227 43.009-41.267 43.764-42.008 1.021-1.01 2.282-4.051-.162-6.139"/><path data-name="Path 14" d="M199.511 48.589a6639.95 6639.95 0 01-8.889-6.814L146.094 83.31q1.111 1.081 2.266 2.064c17.8-11.093 49.5-30.862 50.767-31.677 1.758-1.141 3.069-3.058.379-5.109"/><path data-name="Path 15" d="M206.543 64.927c-1.767-2.195-6.909-8.427-6.909-8.427l-49.721 30.121q1.537 1.179 3.142 2.188c19.867-7.162 51.352-18.511 52.517-18.936 1.715-.626 2.736-2.752.972-4.947"/><path data-name="Path 16" d="M215.084 90.568c-2.1-3.234-11.042-17.035-11.042-17.035l-48.926 16.5a46.629 46.629 0 0018.965 5.579c18.835-.182 38.1-.369 39.083-.386 1.949-.035 4.024-1.419 1.92-4.654"/><path data-name="Path 17" d="M129.992 47.056h-11.113l5.955 17.2z"/><path data-name="Path 18" d="M124.699 103.596c-18.262 0-30.118-9.608-29.645-10.314a1.536 1.536 0 012.137-.419c7.355 4.934 17.121 7.653 27.508 7.653 10.287 0 19.989-2.673 27.32-7.529a1.54 1.54 0 012.133.435c.468.708-11.191 10.174-29.453 10.174"/><path data-name="Path 19" d="M0 124.196a8.712 8.712 0 01.515-2.918 8.074 8.074 0 011.5-2.6 7.715 7.715 0 012.413-1.865 7.167 7.167 0 013.261-.721 6.654 6.654 0 013.706 1 6.265 6.265 0 012.288 2.55l-.961.548a5.479 5.479 0 00-1.017-1.418 5.412 5.412 0 00-1.26-.927 5.6 5.6 0 00-1.407-.515 6.8 6.8 0 00-1.441-.158 5.787 5.787 0 00-2.745.628 6.506 6.506 0 00-2.015 1.636 7.132 7.132 0 00-1.247 2.277 8.021 8.021 0 00-.424 2.552 7.7 7.7 0 001.878 5.045 6.65 6.65 0 002.057 1.589 5.657 5.657 0 002.564.6 6.608 6.608 0 001.511-.184 5.867 5.867 0 001.487-.571 6.049 6.049 0 001.327-1 5.29 5.29 0 001.03-1.43l1.006.481a5.427 5.427 0 01-1.121 1.627 7.05 7.05 0 01-1.58 1.189 7.41 7.41 0 01-1.842.721 7.856 7.856 0 01-1.911.242 6.439 6.439 0 01-3.054-.733 8.083 8.083 0 01-2.391-1.911 8.886 8.886 0 01-1.567-2.677 8.659 8.659 0 01-.561-3.054"/><path data-name="Path 20" d="M23.225 132.548a6.711 6.711 0 01-3.089-.71 7.927 7.927 0 01-2.4-1.853 8.3 8.3 0 01-1.558-2.632 8.763 8.763 0 01-.548-3.043 8.483 8.483 0 01.583-3.112 8.708 8.708 0 011.6-2.632 7.669 7.669 0 012.413-1.818 6.824 6.824 0 013.019-.677 6.7 6.7 0 013.1.722 7.772 7.772 0 012.4 1.887 8.751 8.751 0 011.545 2.643 8.607 8.607 0 01-1.636 8.742 7.726 7.726 0 01-2.415 1.805 6.826 6.826 0 01-3.019.677m-6.43-8.237a7.8 7.8 0 00.47 2.688 7.251 7.251 0 001.327 2.29 6.543 6.543 0 002.049 1.589 5.736 5.736 0 002.606.594 5.591 5.591 0 002.644-.617 6.467 6.467 0 002.013-1.634 7.755 7.755 0 001.27-7.6 7.4 7.4 0 00-1.339-2.29 6.635 6.635 0 00-2.024-1.589 5.542 5.542 0 00-2.564-.6 5.68 5.68 0 00-2.654.617 6.554 6.554 0 00-2.037 1.636 7.541 7.541 0 00-1.305 2.3 7.729 7.729 0 00-.457 2.608"/><path data-name="Path 21" d="M33.983 132.434v-16.247h1.167v15.194h9.7v1.054z"/><path data-name="Path 22" d="M52.72 132.548a6.711 6.711 0 01-3.089-.71 7.927 7.927 0 01-2.4-1.853 8.3 8.3 0 01-1.558-2.632 8.765 8.765 0 01-.55-3.043 8.484 8.484 0 01.584-3.112 8.709 8.709 0 011.6-2.632 7.669 7.669 0 012.413-1.818 6.824 6.824 0 013.019-.677 6.7 6.7 0 013.1.722 7.772 7.772 0 012.4 1.887 8.751 8.751 0 011.545 2.643 8.607 8.607 0 01-1.636 8.742 7.723 7.723 0 01-2.415 1.805 6.824 6.824 0 01-3.019.677m-6.43-8.237a7.8 7.8 0 00.47 2.688 7.251 7.251 0 001.327 2.29 6.54 6.54 0 002.049 1.589 5.736 5.736 0 002.606.594 5.591 5.591 0 002.644-.617 6.473 6.473 0 002.013-1.634 7.757 7.757 0 001.27-7.6 7.4 7.4 0 00-1.339-2.29 6.635 6.635 0 00-2.024-1.589 5.542 5.542 0 00-2.564-.6 5.68 5.68 0 00-2.654.617 6.554 6.554 0 00-2.037 1.636 7.536 7.536 0 00-1.305 2.3 7.729 7.729 0 00-.457 2.608"/><path data-name="Path 23" d="M69.995 131.472a5.454 5.454 0 002.734-.619 4.765 4.765 0 001.718-1.622 6.976 6.976 0 00.892-2.29 12.839 12.839 0 00.262-2.586v-8.168h1.169v8.168a13.449 13.449 0 01-.355 3.112 7.5 7.5 0 01-1.156 2.621 5.736 5.736 0 01-2.084 1.8 7.888 7.888 0 01-6.406-.034 5.8 5.8 0 01-2.093-1.853 7.58 7.58 0 01-1.121-2.621 13.569 13.569 0 01-.333-3.021v-8.168h1.168v8.168a13.07 13.07 0 00.262 2.632 6.5 6.5 0 00.915 2.279 4.907 4.907 0 001.729 1.6 5.435 5.435 0 002.7.606"/><path data-name="Path 24" d="M80.772 132.434v-16.246h6.749a4.193 4.193 0 011.9.433 4.888 4.888 0 011.5 1.156 5.545 5.545 0 01.985 1.625 4.937 4.937 0 01.353 1.818 5.476 5.476 0 01-.273 1.729 5.144 5.144 0 01-.777 1.5 4.345 4.345 0 01-1.214 1.1 4.226 4.226 0 01-1.556.573l4.051 6.315h-1.357l-3.937-6.132h-5.262v6.132zm1.167-7.207h5.7a2.964 2.964 0 001.42-.344 3.662 3.662 0 001.1-.9 4.007 4.007 0 00.7-1.281 4.6 4.6 0 00.242-1.478 4.024 4.024 0 00-.288-1.5 4.189 4.189 0 00-.777-1.27 3.877 3.877 0 00-1.145-.881 3.075 3.075 0 00-1.407-.333h-5.536z"/><path data-name="Path 25" d="M101.502 132.434v-16.246h6.681a4.193 4.193 0 011.9.433 4.872 4.872 0 011.5 1.156 5.552 5.552 0 01.984 1.625 4.943 4.943 0 01.357 1.818 5.511 5.511 0 01-.335 1.9 5.157 5.157 0 01-.937 1.623 4.591 4.591 0 01-1.452 1.134 4.141 4.141 0 01-1.876.424h-5.651v6.132zm1.167-7.207h5.606a3.054 3.054 0 001.442-.333 3.3 3.3 0 001.086-.892 4.16 4.16 0 00.688-1.283 4.747 4.747 0 00.24-1.5 4.028 4.028 0 00-.287-1.52 4.229 4.229 0 00-.779-1.272 3.716 3.716 0 00-1.143-.868 3.075 3.075 0 00-1.383-.322h-5.469z"/><path data-name="Path 26" d="M115.709 132.434v-16.246h6.747a4.193 4.193 0 011.9.433 4.889 4.889 0 011.5 1.156 5.5 5.5 0 01.983 1.625 4.872 4.872 0 01.355 1.818 5.475 5.475 0 01-.273 1.729 5.1 5.1 0 01-.777 1.5 4.346 4.346 0 01-1.214 1.1 4.227 4.227 0 01-1.556.573l4.049 6.315h-1.347l-3.937-6.132h-5.262v6.132zm1.169-7.207h5.7a2.964 2.964 0 001.42-.344 3.663 3.663 0 001.1-.9 4.008 4.008 0 00.7-1.281 4.6 4.6 0 00.242-1.478 4.024 4.024 0 00-.288-1.5 4.189 4.189 0 00-.777-1.27 3.875 3.875 0 00-1.145-.881 3.074 3.074 0 00-1.407-.333h-5.536z"/><path data-name="Rectangle 3" d="M130.558 116.188h1.167v16.247h-1.167z"/><path data-name="Path 27" d="M137.15 118.385v14.051h-1.167v-16.247h.892l11.4 14.3v-14.3h1.167v16.247h-1.076z"/><path data-name="Path 28" d="M165.02 117.239h-5.95v15.2h-1.167v-15.2h-5.946v-1.052h13.068z"/><path data-name="Path 29" d="M172.777 132.434v-16.247h5.4a8.342 8.342 0 013.378.641 6.848 6.848 0 012.413 1.74 7.3 7.3 0 011.44 2.575 10.046 10.046 0 01.481 3.145 9.885 9.885 0 01-.537 3.353 7.23 7.23 0 01-1.545 2.563 6.914 6.914 0 01-2.437 1.647 8.4 8.4 0 01-3.192.584zm11.945-8.147a8.893 8.893 0 00-.433-2.826 6.376 6.376 0 00-1.27-2.23 5.8 5.8 0 00-2.048-1.465 6.961 6.961 0 00-2.794-.528h-4.232v14.142h4.232a6.937 6.937 0 002.826-.539 5.6 5.6 0 002.047-1.5 6.532 6.532 0 001.247-2.253 8.915 8.915 0 00.424-2.8"/><path data-name="Rectangle 4" d="M189.088 116.188h1.167v16.247h-1.167z"/><path data-name="Path 30" d="M194.511 132.434v-16.246h6.751a4.181 4.181 0 011.9.433 4.874 4.874 0 011.5 1.156 5.546 5.546 0 01.985 1.625 4.94 4.94 0 01.355 1.818 5.478 5.478 0 01-.275 1.729 5.144 5.144 0 01-.777 1.5 4.372 4.372 0 01-1.214 1.1 4.214 4.214 0 01-1.556.573l4.049 6.315h-1.349l-3.937-6.132h-5.262v6.132zm1.168-7.207h5.7a2.956 2.956 0 001.418-.344 3.611 3.611 0 001.1-.9 3.979 3.979 0 00.7-1.281 4.6 4.6 0 00.242-1.478 4.024 4.024 0 00-.288-1.5 4.154 4.154 0 00-.777-1.27 3.88 3.88 0 00-1.145-.881 3.076 3.076 0 00-1.407-.333h-5.537z"/><path data-name="Path 31" d="M220.186 131.382v1.054h-10.824v-16.248h10.613v1.052h-9.45v6.385h8.259v1.006h-8.259v6.75z"/><path data-name="Path 32" d="M221.905 124.196a8.671 8.671 0 01.515-2.918 8.11 8.11 0 011.5-2.6 7.73 7.73 0 012.415-1.865 7.161 7.161 0 013.26-.721 6.648 6.648 0 013.705 1 6.239 6.239 0 012.288 2.55l-.959.548a5.518 5.518 0 00-1.018-1.418 5.45 5.45 0 00-1.259-.927 5.589 5.589 0 00-1.409-.515 6.793 6.793 0 00-1.44-.158 5.776 5.776 0 00-2.744.628 6.488 6.488 0 00-2.017 1.636 7.166 7.166 0 00-1.245 2.277 7.973 7.973 0 00-.424 2.552 7.707 7.707 0 001.876 5.045 6.658 6.658 0 002.056 1.594 5.648 5.648 0 002.562.6 6.6 6.6 0 001.511-.184 5.814 5.814 0 001.487-.571 6.011 6.011 0 001.327-1 5.218 5.218 0 001.03-1.43l1.008.481a5.438 5.438 0 01-1.123 1.627 7.02 7.02 0 01-1.58 1.189 7.423 7.423 0 01-1.84.721 7.863 7.863 0 01-1.911.242 6.433 6.433 0 01-3.054-.733 8.064 8.064 0 01-2.392-1.911 8.892 8.892 0 01-1.567-2.677 8.629 8.629 0 01-.561-3.054"/><path data-name="Path 33" d="M250 117.239h-5.95v15.2h-1.167v-15.2h-5.951v-1.052H250z"/><path data-name="Path 34" d="M40.579 142.861a3.121 3.121 0 01-1.345.273 2.224 2.224 0 01-2.33-2.392 2.378 2.378 0 012.515-2.484 2.876 2.876 0 011.179.24l-.193.659a2 2 0 00-.986-.222 1.764 1.764 0 00-.031 3.52 2.425 2.425 0 001.045-.231z"/><path data-name="Path 35" d="M46.72 140.657a2.289 2.289 0 01-2.332 2.486 2.227 2.227 0 01-2.244-2.41 2.286 2.286 0 012.321-2.485 2.218 2.218 0 012.255 2.408m-3.715.049c0 1.023.59 1.8 1.423 1.8.812 0 1.42-.763 1.42-1.817 0-.793-.4-1.8-1.4-1.8s-1.441.928-1.441 1.818"/><path data-name="Path 36" d="M48.758 139.62c0-.484-.009-.879-.04-1.267h.755l.049.775h.018a1.723 1.723 0 011.547-.881c.648 0 1.654.386 1.654 1.993v2.797h-.85v-2.7c0-.754-.28-1.383-1.085-1.383a1.207 1.207 0 00-1.139.872 1.163 1.163 0 00-.058.395v2.816h-.852z"/><path data-name="Path 37" d="M54.976 142.166a2.258 2.258 0 001.123.339c.617 0 .908-.31.908-.7 0-.406-.242-.628-.87-.859-.843-.3-1.237-.766-1.237-1.327a1.442 1.442 0 011.612-1.372 2.313 2.313 0 011.152.291l-.213.617a1.822 1.822 0 00-.957-.271c-.5 0-.783.291-.783.639 0 .388.28.561.89.792.812.313 1.229.715 1.229 1.414 0 .821-.639 1.4-1.751 1.4a2.657 2.657 0 01-1.316-.318z"/><path data-name="Path 38" d="M60.912 137.01v1.345h1.219v.648h-1.219v2.526c0 .579.164.906.639.906a2 2 0 00.493-.056l.038.637a2.085 2.085 0 01-.753.117 1.183 1.183 0 01-.919-.357 1.739 1.739 0 01-.329-1.221v-2.552h-.726v-.648h.726v-1.121z"/><path data-name="Path 39" d="M66.648 143.035l-.069-.59h-.029a1.741 1.741 0 01-1.432.7 1.334 1.334 0 01-1.43-1.347c0-1.13 1.006-1.749 2.815-1.738v-.1a.965.965 0 00-1.065-1.083 2.336 2.336 0 00-1.22.348l-.193-.561a2.911 2.911 0 011.538-.415c1.432 0 1.778.976 1.778 1.913v1.753a6.7 6.7 0 00.074 1.12zm-.127-2.386c-.928-.02-1.984.144-1.984 1.054a.755.755 0 00.8.812 1.16 1.16 0 001.13-.785.81.81 0 00.049-.269z"/><path data-name="Path 40" d="M69.681 139.62c0-.484-.009-.879-.038-1.267h.754l.049.775h.018a1.723 1.723 0 011.547-.881c.648 0 1.654.386 1.654 1.993v2.797h-.85v-2.7c0-.754-.28-1.383-1.085-1.383a1.208 1.208 0 00-1.139.872 1.163 1.163 0 00-.058.395v2.816h-.852z"/><path data-name="Path 41" d="M76.998 137.01v1.345h1.219v.648h-1.219v2.526c0 .579.164.906.639.906a2 2 0 00.493-.056l.038.637a2.085 2.085 0 01-.753.117 1.183 1.183 0 01-.919-.357 1.739 1.739 0 01-.329-1.221v-2.552h-.726v-.648h.726v-1.121z"/><path data-name="Rectangle 5" d="M80.145 136.17h.852v6.865h-.852z"/><path data-name="Path 42" d="M83.702 138.357l1.025 2.766c.107.31.222.675.3.957h.02c.087-.282.184-.639.3-.977l.93-2.747h.9l-1.276 3.336a7.083 7.083 0 01-1.605 2.93 2.309 2.309 0 01-1.045.551l-.211-.717a2.193 2.193 0 00.743-.415 2.574 2.574 0 00.717-.948.59.59 0 00.067-.2.692.692 0 00-.058-.222l-1.735-4.314z"/><path data-name="Path 43" d="M95.962 138.355a22.16 22.16 0 00-.036 1.289v2.717a2.694 2.694 0 01-.67 2.137 2.477 2.477 0 01-1.7.561 3.014 3.014 0 01-1.558-.388l.215-.648a2.635 2.635 0 001.372.368c.87 0 1.509-.453 1.509-1.634v-.52h-.025a1.68 1.68 0 01-1.491.783 2.093 2.093 0 01-1.991-2.284 2.244 2.244 0 012.108-2.484 1.556 1.556 0 011.46.812h.02l.038-.706zm-.879 1.847a1.166 1.166 0 00-.049-.386 1.228 1.228 0 00-1.189-.9c-.814 0-1.392.688-1.392 1.773 0 .917.464 1.681 1.383 1.681a1.244 1.244 0 001.179-.872 1.438 1.438 0 00.067-.453z"/><path data-name="Path 44" d="M98.244 139.815c0-.553-.009-1.025-.038-1.46h.744l.029.917h.038a1.408 1.408 0 011.3-1.025.813.813 0 01.242.031v.8a1.362 1.362 0 00-.289-.027 1.2 1.2 0 00-1.143 1.092 2.521 2.521 0 00-.036.4v2.495h-.843z"/><path data-name="Path 45" d="M106.514 140.657a2.289 2.289 0 01-2.332 2.486 2.227 2.227 0 01-2.244-2.41 2.286 2.286 0 012.32-2.485 2.218 2.218 0 012.255 2.408m-3.715.049c0 1.023.59 1.8 1.423 1.8.812 0 1.42-.763 1.42-1.817 0-.793-.4-1.8-1.4-1.8s-1.441.928-1.441 1.818"/><path data-name="Path 46" d="M108.823 138.357l.62 2.379c.133.522.258 1 .346 1.491h.029c.107-.475.26-.977.417-1.483l.764-2.386h.716l.724 2.341c.175.561.311 1.054.417 1.529h.027a14.139 14.139 0 01.358-1.518l.668-2.351h.841l-1.509 4.679h-.772l-.716-2.235a14.8 14.8 0 01-.417-1.536h-.02a14.063 14.063 0 01-.426 1.547l-.755 2.224h-.773l-1.411-4.679z"/><path data-name="Path 47" d="M117.514 137.039a.527.527 0 01-1.054 0 .518.518 0 01.533-.531.5.5 0 01.521.531m-.946 1.316h.852v4.679h-.852z"/><path data-name="Path 48" d="M119.797 139.62c0-.484-.009-.879-.04-1.267h.755l.049.775h.018a1.723 1.723 0 011.547-.881c.648 0 1.654.386 1.654 1.993v2.797h-.85v-2.7c0-.754-.28-1.383-1.085-1.383a1.208 1.208 0 00-1.139.872 1.163 1.163 0 00-.058.395v2.816h-.852z"/><path data-name="Path 49" d="M130.162 138.355c-.018.339-.038.715-.038 1.289v2.717a2.693 2.693 0 01-.668 2.137 2.48 2.48 0 01-1.7.561 3.015 3.015 0 01-1.558-.388l.215-.648a2.636 2.636 0 001.372.368c.872 0 1.509-.453 1.509-1.634v-.52h-.018a1.677 1.677 0 01-1.491.783 2.094 2.094 0 01-1.991-2.284 2.245 2.245 0 012.108-2.484 1.556 1.556 0 011.461.812h.018l.04-.706zm-.879 1.847a1.167 1.167 0 00-.049-.386 1.228 1.228 0 00-1.189-.9c-.814 0-1.394.688-1.394 1.773 0 .917.464 1.681 1.385 1.681a1.245 1.245 0 001.179-.872 1.5 1.5 0 00.067-.453z"/><path data-name="Path 50" d="M135.827 138.357l1.025 2.766c.109.31.224.675.3.957h.02c.088-.282.184-.639.3-.977l.93-2.747h.9l-1.278 3.336a7.076 7.076 0 01-1.605 2.93 2.3 2.3 0 01-1.043.551l-.213-.717a2.2 2.2 0 00.744-.415 2.572 2.572 0 00.716-.948.6.6 0 00.069-.2.748.748 0 00-.058-.222l-1.733-4.314z"/><path data-name="Path 51" d="M145.18 140.657a2.289 2.289 0 01-2.331 2.486 2.229 2.229 0 01-2.246-2.41 2.287 2.287 0 012.322-2.485 2.218 2.218 0 012.255 2.408m-3.715.049c0 1.023.59 1.8 1.421 1.8.812 0 1.422-.763 1.422-1.817 0-.793-.4-1.8-1.4-1.8s-1.442.928-1.442 1.818"/><path data-name="Path 52" d="M151.138 141.756c0 .486.009.91.038 1.276h-.754l-.049-.764h-.02a1.757 1.757 0 01-1.545.872c-.737 0-1.616-.406-1.616-2.051v-2.733h.85v2.592c0 .89.271 1.489 1.045 1.489a1.227 1.227 0 001.121-.773 1.183 1.183 0 00.078-.435v-2.873h.852z"/><path data-name="Path 53" d="M153.512 139.815c0-.553-.009-1.025-.038-1.46h.744l.029.917h.038a1.408 1.408 0 011.3-1.025.813.813 0 01.242.031v.8a1.376 1.376 0 00-.289-.027 1.2 1.2 0 00-1.143 1.092 2.506 2.506 0 00-.038.4v2.495h-.841z"/><path data-name="Path 54" d="M160.657 139.815c0-.553-.009-1.025-.038-1.46h.745l.029.917h.038a1.408 1.408 0 011.3-1.025.814.814 0 01.242.031v.8a1.378 1.378 0 00-.289-.027 1.2 1.2 0 00-1.143 1.092 2.513 2.513 0 00-.036.4v2.495h-.843z"/><path data-name="Path 55" d="M165.157 140.851a1.5 1.5 0 001.609 1.625 3.086 3.086 0 001.294-.242l.146.608a3.805 3.805 0 01-1.558.291 2.175 2.175 0 01-2.3-2.361 2.275 2.275 0 012.2-2.525 1.982 1.982 0 011.933 2.206 3.438 3.438 0 01-.027.4zm2.5-.61a1.214 1.214 0 00-1.179-1.385 1.411 1.411 0 00-1.307 1.385z"/><path data-name="Path 56" d="M170.499 139.884c0-.6-.02-1.083-.036-1.529h.763l.038.8h.02a1.841 1.841 0 011.662-.91 2.122 2.122 0 011.984 2.381 2.215 2.215 0 01-2.127 2.514 1.642 1.642 0 01-1.442-.735h-.018v2.544h-.843zm.843 1.247a1.889 1.889 0 00.038.349 1.312 1.312 0 001.276 1c.9 0 1.421-.735 1.421-1.809 0-.937-.491-1.742-1.392-1.742a1.358 1.358 0 00-1.287 1.056 1.339 1.339 0 00-.056.346z"/><path data-name="Path 57" d="M180.886 141.756c0 .486.009.91.038 1.276h-.754l-.049-.764h-.02a1.757 1.757 0 01-1.545.872c-.737 0-1.616-.406-1.616-2.051v-2.733h.85v2.592c0 .89.271 1.489 1.045 1.489a1.227 1.227 0 001.121-.773 1.185 1.185 0 00.078-.435v-2.873h.852z"/><path data-name="Path 58" d="M184.29 137.01v1.345h1.218v.648h-1.218v2.526c0 .579.162.906.637.906a2 2 0 00.495-.056l.036.637a2.066 2.066 0 01-.752.117 1.181 1.181 0 01-.919-.357 1.73 1.73 0 01-.329-1.221v-2.552h-.726v-.648h.726v-1.121z"/><path data-name="Path 59" d="M190.028 143.035l-.067-.59h-.033a1.74 1.74 0 01-1.432.7 1.335 1.335 0 01-1.432-1.347c0-1.13 1.008-1.749 2.816-1.738v-.1a.965.965 0 00-1.063-1.083 2.331 2.331 0 00-1.219.348l-.195-.561a2.917 2.917 0 011.54-.415c1.432 0 1.778.976 1.778 1.913v1.753a6.525 6.525 0 00.078 1.119zm-.126-2.386c-.93-.02-1.984.144-1.984 1.054a.755.755 0 00.8.812 1.163 1.163 0 001.13-.785.853.853 0 00.049-.269z"/><path data-name="Path 60" d="M194.045 137.01v1.345h1.218v.648h-1.218v2.526c0 .579.162.906.637.906a2 2 0 00.495-.056l.036.637a2.066 2.066 0 01-.752.117 1.181 1.181 0 01-.919-.357 1.731 1.731 0 01-.329-1.221v-2.552h-.726v-.648h.726v-1.121z"/><path data-name="Path 61" d="M198.135 137.039a.527.527 0 01-1.054 0 .518.518 0 01.532-.531.5.5 0 01.522.531m-.948 1.316h.852v4.679h-.852z"/><path data-name="Path 62" d="M204.654 140.657a2.29 2.29 0 01-2.332 2.486 2.228 2.228 0 01-2.246-2.41 2.286 2.286 0 012.322-2.485 2.218 2.218 0 012.255 2.408m-3.714.049c0 1.023.59 1.8 1.421 1.8.812 0 1.421-.763 1.421-1.817 0-.793-.4-1.8-1.4-1.8s-1.442.928-1.442 1.818"/><path data-name="Path 63" d="M206.691 139.62c0-.484-.009-.879-.038-1.267h.753l.049.775h.02a1.715 1.715 0 011.545-.881c.648 0 1.654.386 1.654 1.993v2.797h-.85v-2.7c0-.754-.28-1.383-1.083-1.383a1.208 1.208 0 00-1.141.872 1.163 1.163 0 00-.058.395v2.816h-.852z"/></g></svg>